<?xml version="1.0" standalone="no"?><!DOCTYPE svg PUBLIC "-//W3C//DTD SVG 1.1//EN" "http://www.w3.org/Graphics/SVG/1.1/DTD/svg11.dtd"><svg t="1496921818705" class="icon" style="" viewBox="0 0 1024 1024" version="1.1" xmlns="http://www.w3.org/2000/svg" p-id="3178" xmlns:xlink="http://www.w3.org/1999/xlink" width="200" height="200"><defs><style type="text/css"></style></defs><path d="M884.036 825.027L569.92 510.91 884.03 196.8c15.73-15.73 15.73-41.233 0-56.961-15.73-15.73-41.231-15.73-56.962 0L512.96 453.95 198.847 139.839c-15.728-15.727-41.234-15.727-56.958 0-15.73 15.73-15.73 41.23 0 56.961L456 510.91 141.886 825.026c-15.727 15.73-15.727 41.231 0 56.962 15.727 15.725 41.233 15.725 56.961 0L512.96 567.87 827.075 881.99c15.73 15.73 41.23 15.73 56.96 0 15.727-15.73 15.727-41.231 0-56.962z" fill="#ff5800" p-id="3179"></path></svg>