<?xml version="1.0" standalone="no"?><!DOCTYPE svg PUBLIC "-//W3C//DTD SVG 1.1//EN" "http://www.w3.org/Graphics/SVG/1.1/DTD/svg11.dtd"><svg t="1512209991047" class="icon" style="" viewBox="0 0 1024 1024" version="1.1" xmlns="http://www.w3.org/2000/svg" p-id="14656" xmlns:xlink="http://www.w3.org/1999/xlink" width="65" height="65"><defs><style type="text/css"></style></defs><path d="M865.298217 881.055571a506.835818 506.835818 0 0 1-355.519077 142.93698c-7.417639 0-14.835279-0.139663-22.299472-0.450024A513.089602 513.089602 0 0 1 154.694569 144.707437a512.748204 512.748204 0 0 1 712.946878-1.070747 512.267144 512.267144 0 0 1-2.34323 737.418881zM525.824829 54.904343c-4.345061-0.108627-8.690121-0.155181-12.988628-0.155181-277.680418 0-449.620679 222.079158-456.014125 440.868485a457.255571 457.255571 0 0 0 127.512014 334.414496 452.460486 452.460486 0 0 0 326.872713 137.955679h1.551807c252.696318 0 452.119088-199.996939 454.36921-455.983089A454.384727 454.384727 0 0 0 525.824829 54.904343z m276.764851 497.602563h-19.444147c-13.811086 0-27.31181 0-40.983233-0.450024a20.887328 20.887328 0 0 1-15.037014-10.707471c-7.060724-12.864483-13.624869-25.86863-20.576966-39.633161-2.513928-4.965784-5.058892-10.024676-7.759037-15.176677l-3.770892-7.386603h132.353653v73.291864h-5.089928z m-101.348542-36.839908a22.532244 22.532244 0 0 1-13.53176 12.97311c-8.984965 4.391615-17.473351 9.559134-27.296293 15.518075-4.562314 2.777735-9.310844 5.679615-14.447327 8.690121l-4.407133 2.576-38.003763-65.656971q-53.304584-92.09977-106.252253-183.718479l-1.722507-2.994989c-6.377928-11.017833-12.957592-22.392581-18.435472-34.139763a40.68839 40.68839 0 0 1 15.207713-54.902946 41.8988 41.8988 0 0 1 54.856392 16.899183c11.623037 20.46834 22.873641 41.557402 33.767329 61.948152a2874.086983 2874.086983 0 0 0 30.089546 55.43056 6054.128315 6054.128315 0 0 0 85.209745 147.669993 25.682413 25.682413 0 0 1 4.965783 19.707954zM498.326801 328.084519c10.335037 20.54593 0.139663 35.893305-8.86082 49.440584a107.509217 107.509217 0 0 0-9.760868 16.83711l-2.374266 5.602025-69.427863-45.405885 3.196723-4.329542a114.926857 114.926857 0 0 0 8.472868-14.245592 46.554222 46.554222 0 0 1 34.015619-30.368871 41.805692 41.805692 0 0 1 44.738607 22.470171z m-73.059092 43.636824c12.010989 7.650411 23.37022 14.881833 34.310461 22.811569a19.537255 19.537255 0 0 1 6.20723 20.266605c-39.80386 69.831333-79.142178 137.955679-120.808207 210.006097l-22.594316 39.105546-70.033068-45.902463 154.87038-257.832801 4.407133 2.855326 13.640387 8.690121z m-105.647049 129.979389a1358.49876 1358.49876 0 0 1-24.922027 43.900631 20.763183 20.763183 0 0 1-15.95258 6.68829c-12.771375 0.186217-25.403087 0.232771-38.329643 0.232771h-43.823041v-73.40049h135.627967l-4.205398 7.557302c-2.886362 5.058892-5.648579 10.07123-8.395278 15.021496z m-0.434506 170.326381l-91.556637 81.454371-10.412628-5.772724 31.781016-119.256399z m82.540636-142.766282c9.016001-14.74217 17.535424-28.661883 26.644534-42.348824a22.997786 22.997786 0 0 1 17.256098-8.705639c38.686559-0.434506 80.771576-0.450024 128.691388 0a21.725304 21.725304 0 0 1 16.806075 7.014169c8.922893 13.966267 17.395761 28.336003 26.380725 43.605788 3.103615 5.338217 6.36241 10.862652 9.729833 16.495713l4.546796 7.759037H387.108765l4.795084-7.759037q4.99682-8.255615 9.760869-16.061207z m260.796753 19.537256c12.181688-7.09176 23.696099-13.811086 35.800197-19.940726a17.954412 17.954412 0 0 1 18.85446 5.80376 842.786604 842.786604 0 0 1 22.733979 35.955378l8.193543 13.37658 2.839808 4.655422-66.200105 35.520872-39.229691-65.486273 4.500242-2.576z m31.579281 74.859189l2.250121-1.241446c3.646747-1.986313 7.386603-3.941591 11.173013-5.927904a275.709622 275.709622 0 0 0 25.573786-14.493881 25.201352 25.201352 0 0 1 36.545065 4.903711 111.83876 111.83876 0 0 1 28.910172 98.291481c-2.110458 11.157495-4.99682 22.283954-7.759037 33.03798-1.272482 4.903711-2.544964 9.807423-3.739856 14.711134l-1.055229 4.267471-12.274797-1.179374-1.412144-2.42082c-0.356916-0.651759-0.791422-1.272482-1.21041-1.908723a16.852628 16.852628 0 0 1-3.243278-7.24694A51.411379 51.411379 0 0 0 735.520564 703.078779a69.61408 69.61408 0 0 1-41.8988-76.938611z" p-id="14657" fill="#ffffff"></path></svg>