<?xml version="1.0" standalone="no"?><!DOCTYPE svg PUBLIC "-//W3C//DTD SVG 1.1//EN" "http://www.w3.org/Graphics/SVG/1.1/DTD/svg11.dtd"><svg t="1512209864526" class="icon" style="" viewBox="0 0 1396 1024" version="1.1" xmlns="http://www.w3.org/2000/svg" p-id="13480" xmlns:xlink="http://www.w3.org/1999/xlink" width="88.61328125" height="65"><defs><style type="text/css"></style></defs><path d="M225.958294 3.489165c13.258825 0 26.587434 0 39.846259 0 11.44446 2.233065 22.819136 5.72223 34.333379 6.489846 123.027941 8.164645 235.448821 48.080687 341.170506 110.257598C665.034755 134.123484 673.269184 149.894507 673.1994 177.179774c-0.976966 269.503067-0.558266 539.075917-0.697833 808.578983 0 12.212076-1.535232 24.424152-2.442415 38.241243-45.847622-20.237154-85.90323-40.893008-127.982554-55.896415-149.406024-53.384217-303.417746-58.617964-459.453182-41.032575-64.89846 7.327245-78.924901-6.071146-78.924901-70.341556-0.069783-249.614829-0.069783-499.229658 0-748.844487 0-55.477716 9.071828-68.596974 62.316478-78.924901C118.98051 18.632138 172.64386 11.793376 225.958294 3.489165z" p-id="13481" fill="#ffffff"></path><path d="M1126.65122 3.489165c13.258825 0 26.587434 0 39.846259 0 50.872019 7.745945 102.092954 13.607742 152.476489 23.586752 69.155241 13.747308 72.993322 19.958021 72.993322 89.671528 0.069783 236.356004 0.069783 472.642224 0 708.998228 0 106.349734-5.861796 108.303666-111.513698 98.254873-185.274635-17.655172-365.734224-0.279133-532.725637 91.695243-6.280496 3.489165-13.817091 4.67548-21.63282 7.187679-1.605016-6.629413-3.279815-10.327927-3.279815-14.026441-0.20935-281.505793-0.558266-562.941802 0.558266-844.447594 0.069783-12.560992 11.23511-30.913998 22.330653-36.706011 57.501431-29.657898 114.653946-62.456045 175.853891-81.995366C987.782472 24.703285 1058.124029 17.027123 1126.65122 3.489165z" p-id="13482" fill="#ffffff"></path></svg>