<?xml version="1.0" standalone="no"?><!DOCTYPE svg PUBLIC "-//W3C//DTD SVG 1.1//EN" "http://www.w3.org/Graphics/SVG/1.1/DTD/svg11.dtd"><svg t="1510209599298" class="icon" style="" viewBox="0 0 1024 1024" version="1.1" xmlns="http://www.w3.org/2000/svg" p-id="8794" xmlns:xlink="http://www.w3.org/1999/xlink" width="65" height="65"><defs><style type="text/css"></style></defs><path d="M549.700227 832.820321a114.231076 61.195219 7.267 1 0 226.62702 28.89893 114.231076 61.195219 7.267 1 0-226.62702-28.89893Z" fill="#E38010" p-id="8795"></path><path d="M301.216467 859.452855c5.439575 33.997344 61.195219 54.39575 126.47012 47.596282 65.2749-6.799469 112.871182-39.436919 108.791501-73.434263-5.439575-33.997344-61.195219-54.39575-126.47012-47.596282-65.2749 6.799469-112.871182 39.436919-108.791501 73.434263z" fill="#E38010" p-id="8796"></path><path d="M316.175299 424.286853a227.102258 225.742364 0 1 0 454.204515 0 227.102258 225.742364 0 1 0-454.204515 0Z" fill="#040000" p-id="8797"></path><path d="M299.856574 852.653386c5.439575 33.997344 61.195219 54.39575 126.470119 47.596282 65.2749-6.799469 112.871182-39.436919 108.791501-73.434263-5.439575-33.997344-61.195219-54.39575-126.47012-47.596281-65.2749 6.799469-114.231076 39.436919-108.7915 73.434262z" fill="#F4A418" p-id="8798"></path><path d="M552.427523 824.678706a114.231076 61.195219 7.267 1 0 226.62702 28.898931 114.231076 61.195219 7.267 1 0-226.62702-28.898931Z" fill="#F4A418" p-id="8799"></path><path d="M318.895086 674.507304a220.302789 183.585657 0 1 0 440.605578 0 220.302789 183.585657 0 1 0-440.605578 0Z" fill="#040000" p-id="8800"></path><path d="M355.612218 637.790173c-32.63745 63.915007-82.953519 104.711819-97.912351 96.552456-20.398406-10.87915-24.478088-76.15405 8.159363-140.069057 32.63745-63.915007 84.313413-106.071713 108.7915-92.472775 25.837981 12.239044 13.598938 72.074369-19.038512 135.989376zM726.863214 645.949535c29.917663 58.475432 72.074369 103.351926 89.752988 99.272245 14.958831-2.719788 24.478088-72.074369-1.359894-137.34927-27.197875-66.634794-77.513944-114.231076-101.992032-101.992032-24.478088 13.598938-19.038513 76.15405 13.598938 140.069057z" fill="#040000" p-id="8801"></path><path d="M378.730412 558.916335c-13.598938 27.197875-21.7583 59.835325-21.7583 92.472775 0 111.511288 82.953519 201.264276 186.305444 201.264276S730.942895 762.900398 730.942895 652.749004c0-32.63745-6.799469-63.915007-20.398406-91.112882-95.192563 47.596282-269.258964 12.239044-331.814077-2.719787z" fill="#FFFFFF" p-id="8802"></path><path d="M438.565737 371.250996a54.39575 44.876494 90 1 0 89.752988 0 54.39575 44.876494 90 1 0-89.752988 0Z" fill="#FFFFFF" p-id="8803"></path><path d="M566.39575 372.61089a54.39575 44.876494 90 1 0 89.752988 0 54.39575 44.876494 90 1 0-89.752988 0Z" fill="#FFFFFF" p-id="8804"></path><path d="M551.436919 441.965471c-62.555113 0-115.590969 14.958831-146.868526 36.717132 8.159363 17.678619 29.917663 31.277556 53.035857 44.876494 27.197875 14.958831 70.714475 25.837981 93.832669 25.837981 20.398406 0 72.074369-13.598938 99.272244-31.277556 19.038513-12.239044 39.436919-23.118194 47.596282-39.436919-31.277556-23.118194-85.673307-36.717131-146.868526-36.717132z" fill="#F4A418" p-id="8805"></path><path d="M465.763612 372.61089a33.997344 27.197875 90 1 0 54.395751 0 33.997344 27.197875 90 1 0-54.395751 0Z" fill="#040000" p-id="8806"></path><path d="M486.162019 364.451527a13.598938 12.239044 90 1 0 24.478087 0 13.598938 12.239044 90 1 0-24.478087 0Z" fill="#FFFFFF" p-id="8807"></path><path d="M589.513944 380.770252c-2.719788 0-5.439575-1.359894-5.439575-4.079681v-5.439575c0-14.958831 10.87915-25.837981 23.118194-25.837981s23.118194 12.239044 23.118194 25.837981v4.079681c0 2.719788-2.719788 5.439575-6.799469 4.079682-2.719788 0-5.439575-2.719788-5.439575-6.799469v-2.719788c0-8.159363-5.439575-14.958831-12.239044-14.958831s-12.239044 6.799469-12.239044 14.958831v2.719788c1.359894 5.439575 0 8.159363-4.079681 8.159362z" fill="#040000" p-id="8808"></path><path d="M426.326693 469.163347s33.997344 29.917663 65.274901 38.077025c36.717131 10.87915 89.752988 5.439575 110.151394-1.359894 36.717131-12.239044 76.15405-39.436919 76.154051-39.436919s-33.997344 25.837981-69.354582 48.956175c-17.678619 12.239044-38.077025 28.557769-78.873838 19.038513-10.87915-2.719788-28.557769-14.958831-35.357238-17.678619-29.917663-17.678619-61.195219-40.796813-67.994688-47.596281z" fill="#893322" p-id="8809"></path><path d="M464.403718 625.551129v99.272244s-40.796813 19.038513-77.513944-16.318725c-13.598938-13.598938 8.159363-108.791501 8.159363-108.791501l69.354581 25.837982z" fill="#DB3428" p-id="8810"></path><path d="M388.249668 605.152722l74.794157 59.835326s1.359894-38.077025 0-48.956175c-1.359894-10.87915-74.794157-17.678619-74.794157-17.678619" fill="#B72C22" p-id="8811"></path><path d="M551.436919 641.869854c-95.192563 0-183.585657-33.997344-254.300133-95.192563-1.359894-1.359894-1.359894-6.799469-1.359894-6.799469s2.719788-10.87915 6.799469-35.357238c2.719788-17.678619 10.87915-39.436919 13.598938-39.436919 2.719788 1.359894 5.439575 4.079681 8.159362 6.799469 5.439575 5.439575 9.519256 9.519256 12.239044 10.87915 58.475432 54.39575 134.629482 84.313413 214.863214 84.313413s156.387782-29.917663 214.863214-84.313413c0 0 13.598938 16.318725 19.038512 32.63745 5.439575 17.678619 12.239044 36.717131 6.799469 42.156707-69.354582 55.755644-153.667995 84.313413-240.701195 84.313413z" fill="#DB3428" p-id="8812"></path></svg>