<?xml version="1.0" standalone="no"?><!DOCTYPE svg PUBLIC "-//W3C//DTD SVG 1.1//EN" "http://www.w3.org/Graphics/SVG/1.1/DTD/svg11.dtd"><svg t="1510193397970" class="icon" style="" viewBox="0 0 1024 1024" version="1.1" xmlns="http://www.w3.org/2000/svg" p-id="5255" xmlns:xlink="http://www.w3.org/1999/xlink" width="65" height="65"><defs><style type="text/css"></style></defs><path d="M628.54 75.57c10.55-7.77 20.48-17.08 26.35-28.99 8.22 25.96 12.58 53.44 10.07 80.67-3.01 34.8-18.49 68.66-44.03 92.67-12.91 11.76-27.57 21.82-43.97 28.04-30.88 11.88-64.53 15.21-97.4 13.69 38.97 68.95 77.99 137.86 116.97 206.8 28.25 49.79 56.26 99.7 84.64 149.41 21.61 30.05 31.13 68.43 25.91 105.09-4.4 32.67-19.43 63.41-40.73 88.38-38.22 44.87-95.85 71.57-154.43 74.76-37.24 2.01-75.3-5.69-107.96-23.95-25.65-14.28-47.78-35.34-61.91-61.19-17.58-31.61-22.47-69.79-14.01-104.91 7.45-31.91 24.76-61.08 47.68-84.33 55.86-56.77 144.44-79.42 220.35-54.51-3.27-2.92-5.49-6.72-8.02-10.24-73.96-104.71-147.9-209.44-221.87-314.14-2.98-4.31-4.63-9.71-3.85-14.95 1.92-11.52 6.64-22.51 13.51-31.95 10.79-14.95 25.72-26.38 41.5-35.65 25.05-14.53 52.6-24.31 80.63-31.28 9.88-2.63 20.11-3.42 30.11-5.43 15.05-2.84 30-6.28 44.55-11.07 19.75-6.3 39.03-14.75 55.91-26.92z" fill="#10B355" p-id="5256"></path><path d="M338.47 136.53c72.48-33.99 155.01-45.72 234.16-34.04-14.55 4.79-29.5 8.23-44.55 11.07-10 2.01-20.23 2.8-30.11 5.43-28.03 6.97-55.58 16.75-80.63 31.28-15.78 9.27-30.71 20.7-41.5 35.65-6.87 9.44-11.59 20.43-13.51 31.95-0.78 5.24 0.87 10.64 3.85 14.95 73.97 104.7 147.91 209.43 221.87 314.14 2.53 3.52 4.75 7.32 8.02 10.24-75.91-24.91-164.49-2.26-220.35 54.51-22.92 23.25-40.23 52.42-47.68 84.33-8.46 35.12-3.57 73.3 14.01 104.91 14.13 25.85 36.26 46.91 61.91 61.19 32.66 18.26 70.72 25.96 107.96 23.95 58.58-3.19 116.21-29.89 154.43-74.76 21.3-24.97 36.33-55.71 40.73-88.38 5.22-36.66-4.3-75.04-25.91-105.09-28.38-49.71-56.39-99.62-84.64-149.41-38.98-68.94-78-137.85-116.97-206.8 32.87 1.52 66.52-1.81 97.4-13.69 16.4-6.22 31.06-16.28 43.97-28.04 25.54-24.01 41.02-57.87 44.03-92.67 68.65 27.34 129.64 73.54 174.55 132.23 42.8 55.53 71 122.22 80.87 191.64 8.99 62.48 3.64 127.05-16.01 187.07-27.21 84.06-82.62 158.54-154.97 209.18-35.77 25.15-75.56 44.58-117.43 57.19-64.01 19.39-132.75 22.75-198.39 10.06-69.26-13.29-134.84-44.94-188.46-90.73-59.98-50.9-104.95-119.32-127.49-194.71-15.13-50.12-20.4-103.14-15.81-155.27 5.86-68.7 29.58-135.73 68.04-192.93 41.69-62.28 100.62-112.88 168.61-144.45z" fill="#F9CD17" p-id="5257"></path></svg>