<?xml version="1.0" standalone="no"?><!DOCTYPE svg PUBLIC "-//W3C//DTD SVG 1.1//EN" "http://www.w3.org/Graphics/SVG/1.1/DTD/svg11.dtd"><svg t="1510193110458" class="icon" style="" viewBox="0 0 1024 1024" version="1.1" xmlns="http://www.w3.org/2000/svg" p-id="2076" xmlns:xlink="http://www.w3.org/1999/xlink" width="65" height="65"><defs><style type="text/css"></style></defs><path d="M331.98 129.66c25.92-4.06 52.22 1.46 76.9 9.3 54.1 17.16 106.4 39.58 157.3 64.6 85.94 41.76 167.56 91.92 246.24 146.02 33.96 24.1 68.24 48.62 96.18 79.8 15.92 18.22 29.24 41.48 26.58 66.54-3.78 29.86-24.52 53.72-44.84 74.42-85.64 80.76-179.3 153.4-280.7 213.4-52.5 30.34-107 57.7-164.48 77.34-36.92 12.74-75.8 23.58-115.24 19.82-23.04-2.14-46.08-11.56-61.82-28.94-13.54-15.04-21.76-34.34-25.5-54.08l1.14-1.6c17.18-4.22 34.2-9.14 51.42-13.26 72.42-18.04 142.08-45.84 208.96-78.78 71.12-35.22 140.18-75.04 204.4-121.76 20.98-15.92 44.22-31.48 56-55.92 9.12-17.38 6.6-39.28-3.68-55.58-12.24-19.82-30.06-35.54-48.88-48.96-21.84-16.04-45.06-30.08-68.6-43.48-45.44-26.92-92.9-50.14-140.12-73.7-55.2-26.12-111.76-49.58-170.06-67.86-25.96-7.58-51.8-15.56-77.88-22.62 2.88-11.6 6.28-23.1 10.96-34.1 11.44-26.56 37.1-46.38 65.72-50.6z" fill="#10ABF2" p-id="2077"></path><path d="M171.4 219.38c24.4-11.76 52.52-8.36 78.24-3.62-7.76 34.16-12.16 68.96-17.54 103.52-0.74 14.92-2.28 29.76-4.04 44.6-2.8 18.52-2.1 37.38-5.12 55.92-0.52 21.72-1.54 43.46-2.4 65.18-2.3 20.94-0.98 42-1.3 63.02 0.24 31.44-0.74 62.96 1.56 94.36 1.48 47.88 5.28 95.74 11.48 143.26 0.1 1.78 0.32 5.32 0.42 7.1-24.58 4.44-52.74 7.94-74.58-6.98-21.04-15.56-29.2-42.16-34.84-66.54-14.06-78.18-19.44-157.8-19.76-237.16 1.1-41.4 5.2-82.66 11.24-123.6 5.34-33.44 11.28-67.06 23.16-98.9 6.24-16.54 16.88-32.62 33.48-40.16z" fill="#FF8F21" p-id="2078"></path><path d="M250.06 213.66c1.32 0.18 3.94 0.52 5.24 0.7 26.08 7.06 51.92 15.04 77.88 22.62 58.3 18.28 114.86 41.74 170.06 67.86 47.22 23.56 94.68 46.78 140.12 73.7 23.54 13.4 46.76 27.44 68.6 43.48 18.82 13.42 36.64 29.14 48.88 48.96 10.28 16.3 12.8 38.2 3.68 55.58-11.78 24.44-35.02 40-56 55.92-64.22 46.72-133.28 86.54-204.4 121.76-66.88 32.94-136.54 60.74-208.96 78.78-17.22 4.12-34.24 9.04-51.42 13.26-3.26 0.68-6.56 1.14-9.84 1.76-0.5-4.16-1.06-8.28-1.62-12.42-6.2-47.52-10-95.38-11.48-143.26-2.3-31.4-1.32-62.92-1.56-94.36 0.32-21.02-1-42.08 1.3-63.02 0.86-21.72 1.88-43.46 2.4-65.18 3.02-18.54 2.32-37.4 5.12-55.92 1.76-14.84 3.3-29.68 4.04-44.6 5.38-34.56 9.78-69.36 17.54-103.52l0.42-2.1m98.46 124.68c-10 2.14-13.74 12.8-14.3 21.88-0.7 13.9-0.58 27.9 0.74 41.76 0.58 41.34-0.62 82.7 0.76 124.02-0.02 36.68-0.06 73.34 0.12 110-0.2 8.68 2.26 19.2 10.74 23.36 9.34 3.38 19.16-0.74 27.1-5.66 66.6-44.84 133.54-89.2 200.26-133.88 8.38-5.96 17.34-14.6 16.36-25.82-0.32-10.96-9.64-18.72-18.24-24.1-67.88-42.12-135.76-84.18-203.64-126.3-5.96-3.36-12.86-6.86-19.9-5.26z" fill="#7DE621" p-id="2079"></path><path d="M348.52 338.34c7.04-1.6 13.94 1.9 19.9 5.26 67.88 42.12 135.76 84.18 203.64 126.3 8.6 5.38 17.92 13.14 18.24 24.1 0.98 11.22-7.98 19.86-16.36 25.82-66.72 44.68-133.66 89.04-200.26 133.88-7.94 4.92-17.76 9.04-27.1 5.66-8.48-4.16-10.94-14.68-10.74-23.36-0.18-36.66-0.14-73.32-0.12-110-1.38-41.32-0.18-82.68-0.76-124.02-1.32-13.86-1.44-27.86-0.74-41.76 0.56-9.08 4.3-19.74 14.3-21.88z" fill="#FFFFFF" p-id="2080"></path></svg>