<?xml version="1.0" standalone="no"?><!DOCTYPE svg PUBLIC "-//W3C//DTD SVG 1.1//EN" "http://www.w3.org/Graphics/SVG/1.1/DTD/svg11.dtd"><svg t="1512209759103" class="icon" style="" viewBox="0 0 1027 1024" version="1.1" xmlns="http://www.w3.org/2000/svg" p-id="9647" xmlns:xlink="http://www.w3.org/1999/xlink" width="65.1904296875" height="65"><defs><style type="text/css"></style></defs><path d="M363.14383697509766 437.06980895996094m-241.93954467773438 0a241.93954467773438 241.93954467773438 0 1 0 483.87908935546875 0 241.93954467773438 241.93954467773438 0 1 0-483.87908935546875 0Z" fill="#FEC459" p-id="9648"></path><path d="M733.0054397583008 465.57418060302734c-22.01557159423828 0-42.949676513671875 4.1713714599609375-62.338829040527344 11.509895324707031-39.70527648925781-72.22652435302734-116.41216278076172-121.2015151977539-204.62894439697263-121.2015151977539-107.06520080566406 0-197.21317291259766 72.14927673339844-224.63607788085938 170.4082489013672C172.88294982910156 539.9636383056641 121.20429229736328 600.3712768554688 121.20429229736328 672.9067916870117c0 52.14214324951172 26.727676391601562 98.02722930908203 67.28267669677734 124.8321533203125 21.165847778320312 15.44952392578125 47.12104797363281 24.71923828125 75.3164291381836 24.71923828125h442.3971176147461c8.960723876953125 0 17.612457275390625-0.926971435546875 26.03244781494141-2.7036666870117188h0.6952285766601562c97.79548645019531 0 177.12879180908203-79.33330535888672 177.12879180908203-177.12879180908203 0.07724761962890625-97.79548645019531-79.25605773925781-177.05154418945312-177.05154418945312-177.05154418945312z" fill="#EDEDED" p-id="9649"></path></svg>