<?xml version="1.0" standalone="no"?><!DOCTYPE svg PUBLIC "-//W3C//DTD SVG 1.1//EN" "http://www.w3.org/Graphics/SVG/1.1/DTD/svg11.dtd"><svg t="1510192838074" class="icon" style="" viewBox="0 0 1024 1024" version="1.1" xmlns="http://www.w3.org/2000/svg" p-id="1835" xmlns:xlink="http://www.w3.org/1999/xlink" width="65" height="65"><defs><style type="text/css"></style></defs><path d="M289.940762 291.023977c-22.747532 0-45.856135 15.165021-45.856136 37.912553s23.108604 37.912553 45.856136 37.912553c22.747532 0 37.912553-15.165021 37.912553-37.912553s-15.165021-37.912553-37.912553-37.912553z m311.966149 220.614951c-15.165021 0-30.330042 15.165021-30.330042 30.330042 0 15.526093 15.165021 30.330042 30.330042 30.330043 23.108604 0 38.273625-15.165021 38.273625-30.330043 0-14.803949-15.165021-30.330042-38.273625-30.330042z m421.732017-355.655853c0-85.93512-69.686883-155.983075-155.983075-155.983075H155.983075C69.686883 0 0 69.686883 0 155.983075v712.03385c0 85.93512 69.686883 155.983075 155.983075 155.983075h712.03385c85.93512 0 155.983075-69.686883 155.983075-155.983075V155.983075h-0.361072z m-634.764457 523.554302c-37.912553 0-68.603667-7.943583-106.51622-15.165022l-106.51622 53.438646 30.330042-91.71227c-76.186178-53.077574-121.681241-121.681241-121.681241-205.44993 0-144.789845 136.846262-258.888575 304.383639-258.888575 149.48378 0 280.913963 90.990127 306.911143 213.754584-9.748942-1.083216-19.497884-1.80536-29.246827-1.80536-144.428773 0-258.888575 107.960508-258.888575 240.834979 0 22.025388 3.610719 43.328632 9.38787 63.909732-9.026798 0.361072-18.77574 1.083216-28.163611 1.083216zM837.686883 786.053597l22.747532 76.186177-83.407617-45.856135c-30.330042 7.582511-61.021157 15.165021-91.351199 15.165021-144.789845 0-258.888575-98.933709-258.888575-220.976022 0-121.681241 114.098731-220.976023 258.888575-220.976023 136.846262 0 258.527504 99.294781 258.527504 220.976023 0 68.964739-45.495063 129.624824-106.51622 175.480959z m-68.242595-274.414669c-15.165021 0-30.330042 15.165021-30.330043 30.330042 0 15.526093 15.165021 30.330042 30.330043 30.330043 22.747532 0 37.912553-15.165021 37.912553-30.330043 0-14.803949-15.165021-30.330042-37.912553-30.330042z m-266.471086-144.428773c23.108604 0 38.273625-15.165021 38.273625-37.912553s-15.165021-37.912553-38.273625-37.912553c-22.747532 0-45.856135 15.165021-45.856136 37.912553 0 22.38646 23.108604 37.912553 45.856136 37.912553z m0 0" fill="#4EA947" p-id="1836"></path></svg>