<?xml version="1.0" standalone="no"?><!DOCTYPE svg PUBLIC "-//W3C//DTD SVG 1.1//EN" "http://www.w3.org/Graphics/SVG/1.1/DTD/svg11.dtd"><svg t="1512209692822" class="icon" style="" viewBox="0 0 1700 1024" version="1.1" xmlns="http://www.w3.org/2000/svg" p-id="7942" xmlns:xlink="http://www.w3.org/1999/xlink" width="106.25" height="64"><defs><style type="text/css"></style></defs><path d="M1556.58367989 666.84618125c-29.0770875 60.29219619-60.07839434 76.86185977-124.32592969 66.70625977-41.2638082-6.52096406-63.81993076-30.68060362-69.91329112-78.89298047 24.90794648 0 49.49518974-0.64140645 73.97553165 0.21380273 16.46276308 0.64140645 23.94583682-4.91744883 23.30443036-22.23542021-0.96210967-25.01484698 0.21380185-50.24349668-0.64140644-75.25834453-0.74830781-20.95260732-12.1867207-34.63594278-33.56693174-35.06354649-42.9742248-0.96210967-85.94844961-0.32070323-133.0918163-0.32070322v212.84000508h-95.67644591V523.38496221h-96.53165507v-98.34897218h93.85912793v-83.48972607h-62.32331602v-96.10404961c20.52500273-0.96210967 40.19479717-2.03111982 63.28542569-3.10013086v-33.35312987H1291.36215693c-3.7415373 26.83216494 6.7347668 35.49115107 34.63594278 35.91875477 74.082433 1.17591152 113.10131865 42.86732432 114.49103203 117.27045968 0.42760459 20.41810224 0.10690137 40.83620362 0.10690136 63.28542656 59.8645916-2.77942763 96.74545693 21.91471699 115.98764678 72.69271875v168.68986787zM1292.00356338 336.94951924c0 29.39779073-1.17591152 51.31250771 0.74830781 72.9065206 0.53450508 5.55885527 10.79700645 14.43164238 16.56966358 14.43164239 11.65221562 0.10690137 33.03242666-3.7415373 33.46003036-7.91067744 2.45872441-22.3423207 3.42083408-46.39505888-3.20703134-67.34766622-2.24492256-7.26927188-27.47357138-7.37617324-47.57097041-12.07981933zM357.3676206 208.88205224c-0.21380185 146.34754717-0.10690137 292.8019957-0.85520829 439.14954287-0.32070323 62.64401924-39.55339072 96.10405049-98.6696754 86.26915284-38.69818242-6.41406357-59.65078974-32.60482208-61.14740449-78.7860791h64.24753448V208.98895362c32.17721836-0.10690137 64.35443672-0.10690137 96.4247537-0.10690138zM767.11937276 208.88205224c-23.62513359 47.14336582-50.02969482 93.11082099-66.81316026 137.90236378 39.33958886-2.24492256 74.61693808-4.27604238 116.73595372-6.7347668-22.23542021 44.89844414-42.01211513 84.6656376-61.78881094 124.53973154-2.67252627 5.34505254-5.23815205 10.90390781-7.91067833 16.24896124-20.73880547 41.58451143-20.63190411 41.69141191 25.33555107 42.9742248 4.81054747 0.10690137 9.51419443 0.74830781 18.28008018 1.49661474-12.93502763 25.33555019-24.26654003 48.42617871-36.45325986 71.08920264-2.03111982 3.7415373-7.48307373 8.01757969-11.3315124 8.01757968-33.99453633-0.10690137-68.30977588 1.06901016-102.09050948-2.67252626-24.4803419-2.77942763-33.78073448-21.27331055-24.26654003-44.57774092 11.65221562-28.75638428 25.44245156-56.65756026 38.2705787-84.87943946 4.38294375-9.72799629 8.76588662-19.45599258 15.28685069-33.88763495-18.9214875 0-32.60482208 0.42760459-46.28815752-0.10690138-40.62240176-1.38971338-54.09193448-19.45599258-37.41536953-56.33685703 26.40456123-58.36797685 55.90925244-115.4531417 84.02423027-173.07281162h96.42475372zM62.10690137 576.40788653c6.09336036-33.78073448 13.79023594-67.4545667 17.85247646-101.44910304 5.13125068-42.76042295 7.16237051-85.84154912 10.69010508-130.73999237h101.44910391c-17.21107002 115.98764678 3.42083408 238.81696172-72.58581827 345.50421679-20.31120088-35.70495293-38.91198516-68.52357773-57.51276855-101.34220254 0.10690137-3.84843779 0.10690137-7.91067832 0.10690137-11.97291885zM1556.58367989 305.30680596c-21.70091426 37.73607276-56.01615381 38.69818242-92.79011778 32.92552529-11.01080918-47.89167363-3.10013086-79.32058418 22.44922207-90.97279893 23.83893545-10.90390781 45.64675107-2.24492256 70.34089571 28.00807647v30.03919717z" fill="#ffffff" p-id="7943"></path><path d="M998.6670626 639.47951035c26.40456123 0 51.20560635 0.53450508 76.00665146-0.21380186 15.60755391-0.42760459 20.41810224 5.98645898 21.38021192 21.27331055 4.81054747 76.11355283 5.23815205 76.11355283-71.73060996 76.11355284H752.36702715c16.8903668-33.35312989 30.57370224-62.64401924 46.7157621-90.43829473 2.99322949-5.23815205 16.03515849-6.20026172 24.4803419-6.41406358 23.94583682-0.8552083 47.998575-0.32070323 74.29623487-0.32070321V341.33246211h-61.46810772v-94.60743575h223.10250556v93.11082101h-60.93360263c0.10690137 100.59389472 0.10690137 198.19455996 0.10690137 299.64366298zM425.89119834 343.36358281h95.03504033c4.5967456 58.68868008 2.56562578 117.80496474 15.28685068 173.6073167 14.96614834 65.3165455-8.87278799 115.88074629-39.76719345 167.40705499-46.18125703-40.4085999-71.30300537-161.42059599-70.55469756-341.01437169zM597.03979062 638.30359883h153.93752227c-17.21107002 33.6738331-30.7875041 61.1474045-45.64675107 87.97957031-2.77942763 4.91744883-10.90390781 9.62109492-16.67656495 9.72799629-44.89844414 0.74830781-89.79688828 0.42760459-141.32319785 0.42760371 19.56289307-38.80508378 35.59805244-70.3408957 49.70899161-98.13517031z" fill="#ffffff" p-id="7944"></path></svg>