<?xml version="1.0" standalone="no"?><!DOCTYPE svg PUBLIC "-//W3C//DTD SVG 1.1//EN" "http://www.w3.org/Graphics/SVG/1.1/DTD/svg11.dtd"><svg t="1510192749246" class="icon" style="" viewBox="0 0 1024 1024" version="1.1" xmlns="http://www.w3.org/2000/svg" p-id="999" xmlns:xlink="http://www.w3.org/1999/xlink" width="65" height="65"><defs><style type="text/css"></style></defs><path d="M1018.8 850.2l0 6c0 89.4-73 162.6-162.2 162.6L167.4 1018.8c-89.2 0-162.2-73.2-162.2-162.6L5.2 167.6c0-89.4 73-162.6 162.2-162.6l689.4 0c89.2 0 162.2 73.2 162.2 162.6l0 524.2L1018.8 850.2zM278.8 785.2c-158.2 0-204.8-124-125.8-193 26.4-22.4 73-34.6 99.4-36.6 93.2-10.2 180.4 26.4 283.8 77.2C461.4 726.4 370 785.2 278.8 785.2L278.8 785.2zM840.4 641c-40.6-14.2-95.2-34.6-156.2-56.8 36.4-63 64.8-136.2 85.2-213.4L568.8 370.8l0-71.2L814 299.6l0-40.6-245.4 0L568.6 139.2l-99.4 0c-18.2 0-18.2 18.2-18.2 18.2l0 103.6L203.8 261l0 40.6 247.4 0 0 69L246.4 370.6l0 40.6 397.4 0c-14.2 50.8-34.4 97.6-56.8 140.2-127.8-42.6-265.6-77.2-352.8-54.8-54.8 14.2-91.2 38.6-111.6 63-95.2 115.8-26.4 292.6 174.4 292.6 119.6 0 235.2-67 324.4-176.8 133.8 65 397.4 174.8 397.4 174.8l0-156.4C1018.8 693.8 986.4 689.8 840.4 641z" fill="#07a0f8" p-id="1000"></path></svg>