<?xml version="1.0" standalone="no"?><!DOCTYPE svg PUBLIC "-//W3C//DTD SVG 1.1//EN" "http://www.w3.org/Graphics/SVG/1.1/DTD/svg11.dtd"><svg t="1494407192726" class="icon" style="" viewBox="0 0 1024 1024" version="1.1" xmlns="http://www.w3.org/2000/svg" p-id="1127" xmlns:xlink="http://www.w3.org/1999/xlink" width="200" height="200"><defs><style type="text/css"></style></defs><path d="M253.952 888.832l-148.48-409.088-10.24 26.112 436.736-230.912-20.48-0.512 416.768 243.712-8.704-27.136-95.744 216.576c-4.608 10.752 0 23.552 10.752 28.16 10.752 4.608 23.552 0 28.16-10.752l95.744-216.576c4.608-9.728 0.512-21.504-8.704-27.136L532.992 237.568c-6.144-3.584-14.336-4.096-20.48-0.512L75.776 467.968c-9.216 5.12-13.824 16.384-10.24 26.112l148.48 409.088c4.096 11.264 16.384 16.896 27.136 12.8 11.264-4.096 16.896-16.384 12.8-27.136z m247.296-611.328v576c0 11.776 9.728 21.504 21.504 21.504 11.776 0 21.504-9.728 21.504-21.504v-576c0-11.776-9.728-21.504-21.504-21.504-11.776 0-21.504 9.728-21.504 21.504zM234.496 403.968V192l-21.504 21.504 597.504 0.512-21.504-21.504v233.984c0 11.776 9.728 21.504 21.504 21.504 11.776 0 21.504-9.728 21.504-21.504V192.512c0-11.776-9.728-21.504-21.504-21.504l-597.504-0.512c-11.776 0-21.504 9.728-21.504 21.504v211.968c0 11.776 9.728 21.504 21.504 21.504 12.288-0.512 21.504-9.728 21.504-21.504zM50.688 885.248c8.704 6.656 23.552 16.896 42.496 26.624 32.256 16.896 65.536 27.136 97.792 27.136 3.072 0 6.144 0 8.704-0.512 14.848-1.536 29.696-7.68 47.104-17.408 6.144-3.584 12.8-7.68 21.504-13.312 2.56-1.536 11.264-7.168 10.752-7.168l10.752-7.168c58.88-37.888 103.936-49.664 167.936-30.72 41.472 12.288 73.728 24.064 103.936 37.888 2.56 1.024 48.128 23.04 60.416 27.648 20.992 8.192 40.96 11.776 67.072 11.776 27.136 0 39.936-4.608 101.888-32.256 79.872-35.328 124.416-39.936 178.176-4.608 9.728 6.656 23.04 3.584 29.696-6.144 6.656-9.728 3.584-23.04-6.144-29.696-69.12-45.568-126.976-39.424-219.136 1.024-54.784 24.064-66.56 28.672-84.48 28.672-20.992 0-35.84-2.56-51.712-8.704-10.24-4.096-54.272-24.576-57.856-26.624-31.744-14.336-65.536-27.136-109.056-39.936-77.824-23.04-134.656-8.192-203.264 35.84-64 40.96-57.344 37.376-72.192 38.912h-4.096c-24.576 0-51.2-8.192-78.336-22.016-9.728-5.12-18.432-10.24-26.624-15.872-4.608-3.072-7.68-5.632-9.216-6.656-9.216-7.168-22.528-5.632-30.208 3.584-6.656 8.704-5.12 22.016 4.096 29.696z m311.808-699.904v-78.336l-21.504 21.504h362.496l-21.504-21.504v85.504c0 11.776 9.728 21.504 21.504 21.504s21.504-9.728 21.504-21.504v-85.504c0-11.776-9.728-21.504-21.504-21.504H340.992c-11.776 0-21.504 9.728-21.504 21.504v78.336c0 11.776 9.728 21.504 21.504 21.504 12.288-0.512 21.504-9.728 21.504-21.504z" fill="#3399ff" p-id="1128"></path></svg>