<?xml version="1.0" standalone="no"?><!DOCTYPE svg PUBLIC "-//W3C//DTD SVG 1.1//EN" "http://www.w3.org/Graphics/SVG/1.1/DTD/svg11.dtd"><svg t="1510038110492" class="icon" style="" viewBox="0 0 1024 1024" version="1.1" xmlns="http://www.w3.org/2000/svg" p-id="993" xmlns:xlink="http://www.w3.org/1999/xlink" width="20" height="20"><defs><style type="text/css"></style></defs><path d="M498.619733 845.073067C498.619733 845.073067 136.6016 471.176533 136.6016 471.176533 136.6016 471.176533 229.410133 395.639467 229.410133 395.639467 229.410133 395.639467 438.749867 562.346667 438.749867 562.346667 524.526933 458.752 714.990933 253.201067 977.7152 89.736533 977.7152 89.736533 999.8336 141.5168 999.8336 141.5168 758.6816 366.523733 561.220267 683.2128 498.619733 845.073067 498.619733 845.073067 498.619733 845.073067 498.619733 845.073067 498.619733 845.073067 498.619733 845.073067 498.619733 845.073067ZM961.262933 406.698667C969.147733 440.5248 973.346133 475.784533 973.346133 512 973.346133 766.805333 766.805333 973.346133 512 973.346133 257.194667 973.346133 50.653867 766.805333 50.653867 512 50.653867 257.194667 257.194667 50.653867 512 50.653867 574.020267 50.653867 633.173333 62.941867 687.2064 85.128533 687.2064 85.128533 687.2064 30.788267 687.2064 30.788267 631.1936 10.3424 572.381867 0 512 0 442.914133 0 375.842133 13.550933 312.695467 40.2432 251.733333 66.048 196.983467 102.946133 149.947733 149.947733 102.946133 196.949333 66.048 251.733333 40.2432 312.695467 13.550933 375.842133 0 442.914133 0 512 0 581.085867 13.550933 648.157867 40.2432 711.304533 66.048 772.266667 102.946133 827.050667 149.947733 874.052267 196.983467 921.053867 251.733333 957.952 312.695467 983.7568 375.842133 1010.449067 442.914133 1024 512 1024 581.085867 1024 648.157867 1010.449067 711.304533 983.7568 772.266667 957.952 827.016533 921.053867 874.052267 874.052267 921.053867 827.050667 957.952 772.266667 983.7568 711.304533 1010.449067 648.157867 1024 581.085867 1024 512 1024 476.2624 1020.347733 441.070933 1013.1456 406.698667 1013.1456 406.698667 961.262933 406.698667 961.262933 406.698667 961.262933 406.698667 961.262933 406.698667 961.262933 406.698667ZM961.262933 406.698667C969.147733 440.5248 973.346133 475.784533 973.346133 512 973.346133 766.805333 766.805333 973.346133 512 973.346133 257.194667 973.346133 50.653867 766.805333 50.653867 512 50.653867 257.194667 257.194667 50.653867 512 50.653867 574.020267 50.653867 633.173333 62.941867 687.2064 85.128533 687.2064 85.128533 687.2064 30.788267 687.2064 30.788267 631.1936 10.3424 572.381867 0 512 0 442.914133 0 375.842133 13.550933 312.695467 40.2432 251.733333 66.048 196.983467 102.946133 149.947733 149.947733 102.946133 196.949333 66.048 251.733333 40.2432 312.695467 13.550933 375.842133 0 442.914133 0 512 0 581.085867 13.550933 648.157867 40.2432 711.304533 66.048 772.266667 102.946133 827.050667 149.947733 874.052267 196.983467 921.053867 251.733333 957.952 312.695467 983.7568 375.842133 1010.449067 442.914133 1024 512 1024 581.085867 1024 648.157867 1010.449067 711.304533 983.7568 772.266667 957.952 827.016533 921.053867 874.052267 874.052267 921.053867 827.050667 957.952 772.266667 983.7568 711.304533 1010.449067 648.157867 1024 581.085867 1024 512 1024 476.2624 1020.347733 441.070933 1013.1456 406.698667 1013.1456 406.698667 961.262933 406.698667 961.262933 406.698667 961.262933 406.698667 961.262933 406.698667 961.262933 406.698667ZM961.262933 406.698667C969.147733 440.5248 973.346133 475.784533 973.346133 512 973.346133 766.805333 766.805333 973.346133 512 973.346133 257.194667 973.346133 50.653867 766.805333 50.653867 512 50.653867 257.194667 257.194667 50.653867 512 50.653867 574.020267 50.653867 633.173333 62.941867 687.2064 85.128533 687.2064 85.128533 687.2064 30.788267 687.2064 30.788267 631.1936 10.3424 572.381867 0 512 0 442.914133 0 375.842133 13.550933 312.695467 40.2432 251.733333 66.048 196.983467 102.946133 149.947733 149.947733 102.946133 196.949333 66.048 251.733333 40.2432 312.695467 13.550933 375.842133 0 442.914133 0 512 0 581.085867 13.550933 648.157867 40.2432 711.304533 66.048 772.266667 102.946133 827.050667 149.947733 874.052267 196.983467 921.053867 251.733333 957.952 312.695467 983.7568 375.842133 1010.449067 442.914133 1024 512 1024 581.085867 1024 648.157867 1010.449067 711.304533 983.7568 772.266667 957.952 827.016533 921.053867 874.052267 874.052267 921.053867 827.050667 957.952 772.266667 983.7568 711.304533 1010.449067 648.157867 1024 581.085867 1024 512 1024 476.2624 1020.347733 441.070933 1013.1456 406.698667 1013.1456 406.698667 961.262933 406.698667 961.262933 406.698667 961.262933 406.698667 961.262933 406.698667 961.262933 406.698667Z" fill="#ff5723" p-id="994"></path></svg>