<?xml version="1.0" standalone="no"?><!DOCTYPE svg PUBLIC "-//W3C//DTD SVG 1.1//EN" "http://www.w3.org/Graphics/SVG/1.1/DTD/svg11.dtd"><svg t="1494400171744" class="icon" style="" viewBox="0 0 1024 1024" version="1.1" xmlns="http://www.w3.org/2000/svg" p-id="2705" xmlns:xlink="http://www.w3.org/1999/xlink" width="200" height="200"><defs><style type="text/css"></style></defs><path d="M186.389108 797.77049h605.227831v33.624394H186.389108zM331.096869 390.116691c20.127538 2.758347 40.486474 0.804774 59.038252 3.62865 2.954933-0.313309 21.113539-0.295903 44.031164-0.313309a4290.297599 4290.297599 0 0 1 46.988146-33.788216c-18.945974 0.149487-38.417201 0.149487-51.814741 0.149487-21.901931 0.065529-31.982082 0.131057-37.497752 0.261091-10.376054-1.345385-20.457229-1.542995-30.209737-1.738557-9.226231-0.213992-17.960996-0.410578-25.940135-1.478491h0.132082c-9.555922-1.346409-14.547363-7.33921-14.547363-10.162062 0.065529-0.739245 0.065529-1.542995 0.065529-1.542995v1.066889c0.492489-3.562097 6.599965-8.801318 15.696162-9.342954l69.380517-3.23343 44.590206-2.003743 56.477514-2.822852 17.665094-0.919449c16.188651-11.754204 32.606652-23.215576 48.92636-34.805958-14.153167 0.049146-24.036732 0.099317-24.628537 0.081911-2.363127-0.065529-4.759019 0.065529-7.124194 0.19761-30.931576 1.542995-61.927656 3.218072-92.925785 4.696562-38.054746 1.821492-76.210856 3.167901-114.202121 5.252531-26.136721 1.412962-46.528421 19.849041-47.480634 41.833907-0.916377 21.917289 17.964068 41.421281 43.379973 44.983378z" fill="#3399ff" p-id="2706"></path><path d="M931.167389 215.070184c-39.142112-22.131281-81.398883-26.760267-125.431071-18.896827-53.457053 9.489369-100.345881 33.162622-145.135745 60.926296-45.37655 28.173229-87.146976 60.991825-130.586335 91.594733-103.628458 72.961044-204.435087 148.959956-294.864639 236.302494-4.85936 4.712944-8.733742 4.842978-14.742925 2.151183-57.692866-26.154127-35.429504-16.745644-87.736733-52.454669-7.947398-5.434783-16.155887-10.34329-26.367095-10.557281-17.76441-0.262115-30.931576 6.929656-37.925736 22.131281-6.862079 14.793095-3.578479 28.844897 8.078455 41.028109 18.354168 19.357576 37.038028 38.51447 55.589806 57.757371 37.597069 38.943478 21.802614 36.186155 65.572688 67.984962 27.089958 19.638121 60.122546 24.611132 94.764682 5.319084 91.183131-50.778569 182.106196-102.083415 271.320396-155.887565 14.546339-8.733742 29.190971-17.352808 45.804534-27.236373-2.560737 27.171869-5.382565 51.978562-6.993137 76.802662-0.885661 14.184907-4.825572 28.434319 0.591806 42.701137 7.878798 20.769514 28.86128 34.085142 52.73419 32.886173 23.279057-1.214328 42.160526-17.48489 47.151967-41.765306 12.279457-59.712992 24.398163-119.490489 36.184107-179.349897 1.741629-8.733742 5.351849-14.858624 13.561361-20.177708 49.024653-31.473211 96.830883-64.489417 141.488666-101.330859 22.066777-18.158606 43.245844-37.333931 57.232118-62.075095 15.861008-28.172205 8.732718-51.517814-20.29136-67.853905z m-9.030668 51.387781c-10.474347 18.618331-27.284496 34.493673-49.285744 52.570368-38.057818 31.406658-81.991713 62.879869-138.270594 98.998448-15.530293 10.080151-24.723759 23.739805-28.370838 41.899435-10.966836 55.606188-22.787592 114.183691-36.184108 179.133857-1.80511 8.94671-7.783576 14.529957-15.926536 15.006064h-1.279857c-8.471627 0-15.663398-4.449806-18.223111-11.230999-0.330715-0.802726-0.691123-2.019102-0.691122-4.778472 0-3.232406 0.492489-7.321804 0.952213-11.638505l1.215352-12.295839c1.084295-16.879773 2.825923-34.035996 4.630009-52.194602l2.297599-23.527861c0.132081-1.082247 0.132081-2.149135 0.132081-3.23343 0-11.427584-5.843314-22.19681-15.596845-28.386196-5.449118-3.48121-11.689699-5.171645-17.96202-5.171645-5.974371 0-11.95079 1.542995-17.271922 4.71192l-17.367143 10.359672-28.567424 17.008783c-91.119651 54.931448-183.781272 107.060521-270.336442 155.278353-9.489369 5.23615-18.683859 7.931016-27.581423 7.931015-10.474347 0-20.981458-3.761755-31.128162-11.097893h0.065529c-21.934695-15.862031-24.890652-19.965764-31.3913-28.914521-5.517718-7.533748-13.069896-17.89342-29.750012-35.166366l-15.235414-15.809813-40.157806-41.76633c-1.346409-1.412962-2.003744-2.347769-2.299647-2.888381 0.065529-0.132081 0.132081-0.39522 0.296927-0.739245 0.85392-1.872686 1.248116-2.758347 6.500648-2.758347h0.19761c0.622522 0.146416 2.560737 0.885661 8.077431 4.646392 15.203673 10.359672 23.805334 16.744621 30.043867 21.376678 18.093078 13.397539 21.606028 15.267154 62.87987 33.967395 6.863103 3.234454 13.659654 4.777449 20.522757 4.777449 8.14296 0 20.160302-2.364151 31.555122-13.459996 94.795399-91.580399 200.165485-169.121282 290.760907-232.871455l41.962916-30.257859c28.105652-20.571904 57.231094-41.832883 87.011822-60.253603 34.446574-21.39306 80.711856-47.070056 133.216696-56.428368 11.291407-2.00272 22.32582-3.020462 32.900507-3.020462 25.610444 0 48.529093 5.909866 70.136145 18.092054 5.582223 3.152543 11.494137 7.667877 11.494137 11.032364 0.002048 1.199994-0.393172 4.697586-3.972675 11.099941z" fill="#3399ff" p-id="2707"></path></svg>