<?xml version="1.0" standalone="no"?><!DOCTYPE svg PUBLIC "-//W3C//DTD SVG 1.1//EN" "http://www.w3.org/Graphics/SVG/1.1/DTD/svg11.dtd"><svg t="1494406845533" class="icon" style="" viewBox="0 0 1024 1024" version="1.1" xmlns="http://www.w3.org/2000/svg" p-id="1649" xmlns:xlink="http://www.w3.org/1999/xlink" width="200" height="200"><defs><style type="text/css"></style></defs><path d="M319.506873 447.548659l170.246792 0 0 50.37193-170.246792 0 0-50.37193Z" p-id="1650" fill="#ff5800"></path><path d="M665.099372 536.815931l16.578524-10.84023L524.183428 525.975701l0 47.185107c62.906764-2.121527 120.083289-4.672999 171.52152-7.652401C685.50309 555.307555 675.301231 545.743061 665.099372 536.815931z" p-id="1651" fill="#ff5800"></path><path d="M524.183428 447.548659l170.245785 0 0 50.37193-170.245785 0 0-50.37193Z" p-id="1652" fill="#ff5800"></path><path d="M319.506873 371.671076l170.246792 0 0 51.010301-170.246792 0 0-51.010301Z" p-id="1653" fill="#ff5800"></path><path d="M524.183428 371.671076l170.245785 0 0 51.010301-170.245785 0 0-51.010301Z" p-id="1654" fill="#ff5800"></path><path d="M779.795773 16.446621 228.93668 16.446621C102.831152 16.446621 0.601116 118.67565 0.601116 244.781177l0 550.859094c0 126.105527 102.229029 228.334557 228.334557 228.334557l550.859094 0c126.105527 0 228.334557-102.229029 228.334557-228.334557L1008.129323 244.781177C1008.13033 118.67565 905.901301 16.446621 779.795773 16.446621zM225.137665 271.563574l264.614993 0 0-45.909372 34.43077 0 0 45.909372L788.79842 271.563574l0 29.968212L524.183428 301.531786l0 42.720536 203.402833 0 0 181.723379-33.794413 0c37.82904 33.584978 68.006686 63.554197 90.543007 89.905643l-26.143018 17.853253c-11.057719-14.028059-23.38312-28.264546-36.982242-42.721542-111.803593 8.079324-269.715922 14.665424-473.756119 19.766353l-5.100929-30.605576c89.68614-1.275736 172.158885-3.188836 247.399104-5.738294l0-48.459836-203.402833 0L286.348818 344.252322l203.402833 0 0-42.720536L225.137665 301.531786 225.137665 271.563574zM577.745201 705.148615l-26.143018 17.853253c-19.985856-26.351446-45.699937-53.559759-77.153319-81.616884l26.143018-15.940153C536.299394 658.601879 562.013475 685.172828 577.745201 705.148615zM251.918048 786.7655l-28.693483-18.490617c28.902917-36.982242 49.943999-79.065413 63.12526-126.25052l31.881312 6.376665C302.499412 701.113988 280.392028 747.231786 251.918048 786.7655zM638.95736 786.127128c-10.630796 8.498193-26.571956 12.75333-47.822472 12.75333L424.076933 798.880459c-33.584978 0-50.372937-15.731725-50.372937-47.184101L373.703997 635.647697l33.794413 0L407.498409 744.682329c0 14.445921 8.92713 21.678447 26.780383 21.678447l150.480438 0c14.445921 0 24.64778-2.978395 30.605576-8.926123 7.223464-8.079324 12.113952-30.178653 14.664417-66.313089l31.881312 10.202866C658.085342 746.803856 650.433948 775.068402 638.95736 786.127128zM765.844238 774.649534c-25.086786-39.951575-57.814897-82.462676-98.194402-127.524242l26.780383-16.578524c42.502039 47.612031 75.240219 89.267272 98.194402 124.973777L765.844238 774.649534z" p-id="1655" fill="#ff5800"></path></svg>