<?xml version="1.0" standalone="no"?><!DOCTYPE svg PUBLIC "-//W3C//DTD SVG 1.1//EN" "http://www.w3.org/Graphics/SVG/1.1/DTD/svg11.dtd"><svg t="1494401903477" class="icon" style="" viewBox="0 0 1024 1024" version="1.1" xmlns="http://www.w3.org/2000/svg" p-id="8072" xmlns:xlink="http://www.w3.org/1999/xlink" width="200" height="200"><defs><style type="text/css"></style></defs><path d="M535.176 187.84v-15.65c0-8.476-6.859-15.335-15.335-15.335s-15.335 6.859-15.335 15.335v15.65c-136.737 7.959-245.548 121.631-245.548 260.238 0 78.963 35.329 152.825 96.909 202.666 6.577 5.302 16.246 4.285 21.566-2.277 5.329-6.588 4.314-16.234-2.279-21.566-54.347-43.997-85.524-109.141-85.524-178.823 0-126.219 102.265-228.996 228.339-230.007 0.618 0.075 1.236 0.125 1.871 0.125s1.258-0.048 1.871-0.125c126.076 1.011 228.339 103.787 228.339 230.007 0 69.68-31.18 134.822-85.524 178.823-6.593 5.338-7.61 14.978-2.279 21.566 3.023 3.747 7.456 5.691 11.934 5.691 3.385 0 6.803-1.134 9.631-3.415 61.581-49.842 96.909-123.699 96.909-202.666 0-138.608-108.815-252.279-245.548-260.238zM688.534 770.288h-153.357v-306.717h30.67c8.479 0 15.34-6.859 15.34-15.335s-6.859-15.337-15.34-15.337h-92.006c-8.479 0-15.34 6.859-15.34 15.337 0 8.473 6.859 15.335 15.34 15.335h30.67v306.717h-153.357c-8.473 0-15.335 6.859-15.335 15.335s6.859 15.337 15.335 15.337h337.386c8.473 0 15.335-6.859 15.335-15.337s-6.862-15.335-15.335-15.335z" p-id="8073" fill="#333333"></path></svg>