<?xml version="1.0" standalone="no"?><!DOCTYPE svg PUBLIC "-//W3C//DTD SVG 1.1//EN" "http://www.w3.org/Graphics/SVG/1.1/DTD/svg11.dtd"><svg t="1509505112024" class="icon" style="" viewBox="0 0 1024 1024" version="1.1" xmlns="http://www.w3.org/2000/svg" p-id="4436" xmlns:xlink="http://www.w3.org/1999/xlink" width="18" height="18"><defs><style type="text/css"></style></defs><path d="M511.988 949.502c-241.237 0-437.5-196.263-437.5-437.5s196.263-437.5 437.5-437.5c241.25 0 437.525 196.263 437.525 437.5s-196.275 437.5-437.525 437.5ZM511.988 99.5c-227.451 0-412.5 185.05-412.5 412.5 0 227.463 185.05 412.5 412.5 412.5 227.463 0 412.525-185.063 412.525-412.5 0-227.463-185.063-412.5-412.525-412.5Z" p-id="4437"></path><path d="M 404.907 313.628 L 404.907 710.329 L 404.907 313.628 Z" p-id="4438"></path><path d="M394.461 348.546h58.594v326.883h-58.594v-326.883Z" fill="#FFA42F" p-id="4439"></path><path d="M 619.093 313.628 L 619.093 710.329 L 619.093 313.628 Z" p-id="4440"></path><path d="M570.945 348.546h58.594v326.883h-58.594v-326.883Z" fill="#FFA42F" p-id="4441"></path></svg>