<?xml version="1.0" standalone="no"?><!DOCTYPE svg PUBLIC "-//W3C//DTD SVG 1.1//EN" "http://www.w3.org/Graphics/SVG/1.1/DTD/svg11.dtd"><svg t="1509505117013" class="icon" style="" viewBox="0 0 1024 1024" version="1.1" xmlns="http://www.w3.org/2000/svg" p-id="4563" xmlns:xlink="http://www.w3.org/1999/xlink" width="18" height="18"><defs><style type="text/css"></style></defs><path d="M395.6337459 721.29619708c-4.66513682 0-9.09103623-1.05408545-13.15268262-3.18384141-10.9761583-5.75249941-17.02185908-18.16858213-17.02185908-34.9619959L365.45920508 341.4432377c0-16.79341377 6.04570078-29.20859648 17.0236582-34.96289502 10.96806357-5.75160029 24.61810869-3.66051797 38.43454131 5.90179834l237.14311728 164.11802783c13.19765185 9.13330723 20.76691992 22.18525839 20.76332256 35.80742285 0 13.62216445-7.57016719 26.67141651-20.76332256 35.80472461L420.92010195 712.21595381C412.21850205 718.23827041 403.57985908 721.29619708 395.6337459 721.29619708L395.6337459 721.29619708zM395.62115469 322.87172891c-1.54065586 0-2.91762158 0.29679873-4.07693584 0.90478652-4.10481651 2.15314013-6.55925273 8.75646299-6.55925273 17.66942051l0 341.70622294c0 8.91025927 2.45443623 15.51448125 6.55925273 17.66852052 4.10211914 2.15134102 10.93388643 0.41102138 18.26571621-4.65884122L646.94765586 532.05999893c7.9641-5.51056377 12.3522249-12.52580713 12.3522249-19.74970987 0-7.22390185-4.3881249-14.23914609-12.34952665-19.75060898L409.80633769 328.43625664C404.54760253 324.79732373 399.54519424 322.87172891 395.62115469 322.87172891L395.62115469 322.87172891z" fill="#FF9B1C" p-id="4564"></path><path d="M510.89330059 72.45541162c-242.91900088 0-439.84318623 196.92418535-439.84318624 439.84138711 0 242.91900088 196.92418535 439.84138711 439.84318623 439.84138711 242.91630263 0 439.84408535-196.92238623 439.84408536-439.84138711C950.73738594 269.37959697 753.80960323 72.45541162 510.89330059 72.45541162zM510.89330059 926.99843135c-229.03151661 0-414.69893438-185.66741778-414.69893438-414.70073262 0-229.03061748 185.66741778-414.69893438 414.69893438-414.69893438 229.03241573 0 414.69983349 185.6683169 414.69983349 414.69893438C925.59313408 741.33101357 739.92661543 926.99843135 510.89330059 926.99843135z" fill="#464646" p-id="4565"></path></svg>