<?xml version="1.0" standalone="no"?><!DOCTYPE svg PUBLIC "-//W3C//DTD SVG 1.1//EN" "http://www.w3.org/Graphics/SVG/1.1/DTD/svg11.dtd"><svg t="1510283609463" class="icon" style="" viewBox="0 0 1024 1024" version="1.1" xmlns="http://www.w3.org/2000/svg" p-id="1938" xmlns:xlink="http://www.w3.org/1999/xlink" width="15" height="15"><defs><style type="text/css"></style></defs><path d="M727.927467 0H296.072533C192.512 0 136.533333 76.1856 136.533333 217.429333v524.629334C136.533333 756.189867 512 1024 512 1024s375.466667-267.810133 375.466667-281.941333V217.429333C887.466667 76.117333 831.556267 0 727.927467 0zM337.92 550.365867c0 14.1312-8.533333 25.8048-18.909867 25.8048-10.376533 0-18.909867-11.605333-18.909866-25.8048V217.429333c0-14.1312 8.533333-25.8048 18.909866-25.8048 10.376533 0 18.909867 11.6736 18.909867 25.8048v332.936534z m192.9216 0c0 14.1312-8.533333 25.8048-18.909867 25.8048-10.376533 0-18.909867-11.605333-18.909866-25.8048V217.429333c0-14.1312 8.533333-25.8048 18.909866-25.8048 10.376533 0 18.909867 11.6736 18.909867 25.8048v332.936534z m192.512 0c0 14.1312-8.6016 25.8048-18.978133 25.8048-10.308267 0-18.909867-11.605333-18.909867-25.8048V217.429333c0-14.1312 8.6016-25.8048 18.909867-25.8048 10.376533 0 18.978133 11.6736 18.978133 25.8048v332.936534z" fill="#dbdbdb" p-id="1939"></path></svg>