<?xml version="1.0" standalone="no"?><!DOCTYPE svg PUBLIC "-//W3C//DTD SVG 1.1//EN" "http://www.w3.org/Graphics/SVG/1.1/DTD/svg11.dtd"><svg t="1493206145102" class="icon" style="" viewBox="0 0 1024 1024" version="1.1" xmlns="http://www.w3.org/2000/svg" p-id="2416" xmlns:xlink="http://www.w3.org/1999/xlink" width="200" height="200"><defs><style type="text/css"></style></defs><path d="M944.425152 884.164185l0.210801-0.207731-170.44188-170.435741c54.311976-68.202335 86.819344-154.500816 86.819344-248.2592 0-220.128513-179.089841-399.215284-399.217331-399.215284S62.580802 245.133 62.580802 465.261513c0 220.12749 179.087794 399.214261 399.215284 399.214261 96.160083 0 184.485735-34.177404 253.476015-91.020016l166.528758 166.533874c0.99056 1.242294 2.040473 2.455935 3.192715 3.605108 16.412808 16.415878 43.017746 16.415878 59.430554 0C960.83796 927.185001 960.83796 900.580063 944.425152 884.164185zM113.010355 465.261513c0-192.320167 156.464541-348.785731 348.785731-348.785731s348.787778 156.465564 348.787778 348.785731c0 192.319144-156.465564 348.784708-348.787778 348.784708S113.010355 657.580656 113.010355 465.261513z" p-id="2417" fill="#ffffff"></path></svg>